<svg id="Capa_1" enable-background="new 0 0 512 512" height="512" viewBox="0 0 512 512" width="512" xmlns="http://www.w3.org/2000/svg"><g><g><path d="m37.443 0v186.059c0 132.398 74.618 253.492 192.88 313.017l25.677 12.924 31.99-256-31.99-256z" fill="#474f54"/><path d="m256 0v512l25.677-12.924c118.262-59.525 192.88-180.62 192.88-313.017v-155.151l-71.259-30.908z" fill="#31383e"/></g><g><path d="m87.443 50v136.059c0 55.693 15.442 110.192 44.659 157.606 29.216 47.414 70.953 85.71 120.701 110.75l3.196 1.609 39.917-213.505-39.916-192.519z" fill="#585f64"/><path d="m256 50v406.023l3.197-1.609c49.747-25.039 91.484-63.335 120.7-110.75 29.217-47.414 44.659-101.913 44.659-157.606v-136.058z" fill="#474f54"/></g><g><path d="m108.32 336.496 26.247 40.937 207.724-181.975 169.709-195.458h-108.702z" fill="#f7fcff"/></g><g><path d="m52.685 404.564-35.447 27.556c-10.976 8.533-17.418 21.926-17.234 35.829.162 12.112 5.114 23.042 13.061 30.986l51.483-31.232 24.047-44.297z" fill="#f8bd3f"/><path d="m88.595 423.405-75.53 75.53c7.747 7.743 18.34 12.649 30.139 13.025l.556.018c.47.015.94.022 1.409.022 13.713 0 26.804-6.376 35.247-17.237l27.322-35.146-15.51-34.305z" fill="#fd9326"/></g><g><path d="m83.601 380.531-30.916 24.033 27.375 27.376 25.041-8.374 2.434-19.101z" fill="#6ae1db"/></g><path d="m143.801 391.835 29.007 13.312 339.192-300.968v-104.179l-377.433 377.433z" fill="#ecf3fb"/><path d="m80.06 431.94 27.678 27.677 24.032-30.916-24.235-24.236z" fill="#21c8c7"/><g><path d="m101.699 310.082c-12.898-12.898-33.81-12.898-46.708 0-12.898 12.898-12.898 33.81 0 46.708l50.109 50.109 36.248-10.217 10.46-36.491z" fill="#fdd752"/></g><path d="m151.808 360.192-46.708 46.708 44.081 44.081c12.898 12.898 33.81 12.898 46.708 0 12.898-12.898 12.898-33.81 0-46.708z" fill="#f8bd3f"/></g></svg>